# xmcd
#
# Track frame offsets: 
#        150
#        15055
#        47820
#        60907
#        77685
#        108312
#        122140
#        128067
#        152767
#        181590
#        219970
#        257085
#
# Disc length: 3945 seconds
#
# Revision: 3
# Processed by: cddbd v1.5.2PL0 Copyright (c) Steve Scherf et al.
# Submitted via: ExactAudioCopy v0.99pb5
#
DISCID=890f670c
DTITLE=Jimi Hendrix - The Last Concert (best live)
DYEAR=1995
DGENRE=Classic Rock
TTITLE0=Little Ivey (little wing live)
TTITLE1=Voodoo Chile (slight return)
TTITLE2=Room Full of Mirrors (edited version) (live)
TTITLE3=Fire (live)
TTITLE4=The Sunshine of Your Love (live)
TTITLE5=Purple Haze (live)
TTITLE6=Wild Thing (live)
TTITLE7=Bleeding Heart (edited version) (live)
TTITLE8=Smashing of the Amps (live)
TTITLE9=C# Blues (People, People, People) 
TTITLE10=Room Full of Mirrors (complete version w flute) (live)
TTITLE11=Bleeding Heart (complete version) (live)
EXTD=YEAR: 1995
EXTT0=
EXTT1=
EXTT2=
EXTT3=
EXTT4=
EXTT5=
EXTT6=
EXTT7=
EXTT8=
EXTT9=
EXTT10=
EXTT11=
PLAYORDER=
